<svg width="35" height="35" viewBox="0 0 35 35" fill="none" xmlns="http://www.w3.org/2000/svg">
<g clip-path="url(#clip0)">
<path d="M0 28.6971H6.30289V35H0V28.6971ZM0 28.6971H6.30289V35H0V28.6971ZM0 19.1314H6.30289V25.4344H0V19.1314ZM0 9.5657H6.30289V15.8686H0V9.5657V9.5657ZM0 0H6.30289V6.30286H0V0ZM9.26322 28.6971H35V35H9.26322V28.6971ZM9.26322 28.6971H35V35H9.26322V28.6971ZM9.26322 19.1314H35V25.4344H9.26322V19.1314ZM9.26322 9.5657H35V15.8686H9.26322V9.5657V9.5657ZM9.26322 0H35V6.30286H9.26322V0V0Z" fill="#FFDA92"/>
</g>
<defs>
<clipPath id="clip0">
<rect width="35" height="35" fill="white"/>
</clipPath>
</defs>
</svg>
