<svg width="699" height="85" viewBox="0 0 699 85" fill="none" xmlns="http://www.w3.org/2000/svg">
<g filter="url(#filter0_dddddddd)">
<mask id="path-1-inside-1" fill="white">
<path d="M37.3276 58.9522C35.0449 58.9522 33.1903 57.1096 33.1756 54.827L33.1105 44.7165L27.3533 54.1515C26.5994 55.387 25.2564 56.1408 23.809 56.1408H23.6467C22.2284 56.1408 20.9082 55.4168 20.1457 54.221L14.3987 45.2074V54.8002C14.3987 57.0933 12.5398 58.9522 10.2467 58.9522H8.69042C6.39732 58.9522 4.53839 57.0933 4.53839 54.8002V31.866C4.53839 29.5729 6.39732 27.714 8.69041 27.714H11.1406C12.5688 27.714 13.8968 28.448 14.6565 29.6574L23.8922 44.3595L32.8591 29.6996C33.6136 28.4661 34.9553 27.714 36.4011 27.714H38.831C41.1193 27.714 42.9763 29.5655 42.983 31.8538L43.0503 54.788C43.0571 57.0859 41.1962 58.9522 38.8983 58.9522H37.3276ZM67.3742 47.6172V54.8002C67.3742 57.0933 65.5152 58.9522 63.2221 58.9522H60.7027C58.4096 58.9522 56.5507 57.0933 56.5507 54.8002V47.4833L48.3141 34.0346C46.6197 31.2679 48.6106 27.714 51.8548 27.714H53.5265C54.9771 27.714 56.3225 28.471 57.0754 29.7109L62.4211 38.5135L67.8108 29.6999C68.5652 28.4663 69.907 27.714 71.353 27.714H72.0961C75.3347 27.714 77.3265 31.257 75.6433 34.0239L67.3742 47.6172ZM105.429 35.6574V41.0126H114.849C117.043 41.0126 118.821 42.7908 118.821 44.9843V44.9843C118.821 47.1778 117.043 48.956 114.849 48.956H105.429V54.8002C105.429 57.0933 103.57 58.9522 101.277 58.9522H98.7575C96.4644 58.9522 94.6055 57.0933 94.6055 54.8002V31.866C94.6055 29.5729 96.4644 27.714 98.7575 27.714H116.729C118.923 27.714 120.701 29.4922 120.701 31.6857V31.6857C120.701 33.8793 118.923 35.6574 116.729 35.6574H105.429ZM144.832 53.5079H132.633L131.516 56.3286C130.889 57.9122 129.359 58.9522 127.655 58.9522H125.887C122.876 58.9522 120.866 55.846 122.1 53.0987L132.403 30.1646C133.073 28.6733 134.556 27.714 136.191 27.714H141.458C143.092 27.714 144.575 28.6733 145.245 30.1646L155.548 53.0987C156.782 55.8461 154.773 58.9522 151.761 58.9522H149.809C148.106 58.9522 146.576 57.9122 145.949 56.3286L144.832 53.5079ZM141.851 45.9214L138.732 38.0673L135.614 45.9214H141.851ZM186.042 27.714C189.032 27.714 191.042 30.7788 189.85 33.5209L178.799 58.9522H168.159L157.107 33.5209C155.915 30.7788 157.925 27.714 160.915 27.714H163.472C165.144 27.714 166.654 28.7174 167.301 30.2595L173.891 45.9661L180.654 30.2269C181.309 28.7022 182.809 27.714 184.469 27.714H186.042ZM209.79 59.6663C206.335 59.6663 203.231 58.9671 200.48 57.5688C197.728 56.1705 195.572 54.2368 194.013 51.7674C192.454 49.2684 191.674 46.4569 191.674 43.3331C191.674 40.2093 192.454 37.4127 194.013 34.9434C195.572 32.4444 197.728 30.4957 200.48 29.0974C203.231 27.6991 206.335 27 209.79 27C213.245 27 216.348 27.6991 219.1 29.0974C221.851 30.4957 224.007 32.4444 225.566 34.9434C227.126 37.4127 227.905 40.2093 227.905 43.3331C227.905 46.4569 227.126 49.2684 225.566 51.7674C224.007 54.2368 221.851 56.1705 219.1 57.5688C216.348 58.9671 213.245 59.6663 209.79 59.6663ZM209.79 51.1427C211.135 51.1427 212.343 50.8303 213.413 50.2055C214.513 49.551 215.385 48.6436 216.027 47.4833C216.669 46.2933 216.99 44.9099 216.99 43.3331C216.99 41.7563 216.669 40.3878 216.027 39.2275C215.385 38.0375 214.513 37.1301 213.413 36.5053C212.343 35.8508 211.135 35.5236 209.79 35.5236C208.444 35.5236 207.221 35.8508 206.121 36.5053C205.051 37.1301 204.194 38.0375 203.552 39.2275C202.91 40.3878 202.589 41.7563 202.589 43.3331C202.589 44.9099 202.91 46.2933 203.552 47.4833C204.194 48.6436 205.051 49.551 206.121 50.2055C207.221 50.8303 208.444 51.1427 209.79 51.1427ZM245.592 51.0981H242.657V54.8002C242.657 57.0933 240.798 58.9522 238.505 58.9522H235.986C233.693 58.9522 231.834 57.0933 231.834 54.8002V31.866C231.834 29.5729 233.693 27.714 235.986 27.714H247.289C250.255 27.714 252.838 28.19 255.04 29.142C257.241 30.0941 258.938 31.4626 260.131 33.2476C261.323 35.0327 261.919 37.1152 261.919 39.4953C261.919 41.7266 261.399 43.6753 260.36 45.3413C259.32 47.0073 257.822 48.3312 255.865 49.313L262.607 58.9522H253.221C251.861 58.9522 250.587 58.2863 249.811 57.1695L245.592 51.0981ZM251.004 39.4953C251.004 38.335 250.637 37.4425 249.903 36.8177C249.169 36.1632 248.069 35.836 246.601 35.836H242.657V43.1546H246.601C248.069 43.1546 249.169 42.8422 249.903 42.2175C250.637 41.563 251.004 40.6556 251.004 39.4953ZM266.006 31.866C266.006 29.5729 267.865 27.714 270.158 27.714H272.678C274.971 27.714 276.83 29.5729 276.83 31.866V54.8002C276.83 57.0933 274.971 58.9522 272.678 58.9522H270.158C267.865 58.9522 266.006 57.0933 266.006 54.8002V31.866ZM289.011 35.8806H283.693C281.438 35.8806 279.609 34.0524 279.609 31.7973V31.7973C279.609 29.5422 281.438 27.714 283.693 27.714H305.153C307.408 27.714 309.236 29.5422 309.236 31.7973V31.7973C309.236 34.0524 307.408 35.8806 305.153 35.8806H299.835V54.8002C299.835 57.0933 297.976 58.9522 295.683 58.9522H293.163C290.87 58.9522 289.011 57.0933 289.011 54.8002V35.8806ZM334.768 51.0088C336.961 51.0088 338.739 52.787 338.739 54.9805V54.9805C338.739 57.174 336.961 58.9522 334.768 58.9522H316.2C313.906 58.9522 312.048 57.0933 312.048 54.8002V31.866C312.048 29.5729 313.906 27.714 316.2 27.714H334.171C336.365 27.714 338.143 29.4922 338.143 31.6857V31.6857C338.143 33.8793 336.365 35.6574 334.171 35.6574H322.688V39.3168H332.47C334.564 39.3168 336.263 41.0151 336.263 43.11V43.11C336.263 45.2049 334.564 46.9032 332.47 46.9032H322.688V51.0088H334.768Z"/>
</mask>
<path d="M37.3276 58.9522C35.0449 58.9522 33.1903 57.1096 33.1756 54.827L33.1105 44.7165L27.3533 54.1515C26.5994 55.387 25.2564 56.1408 23.809 56.1408H23.6467C22.2284 56.1408 20.9082 55.4168 20.1457 54.221L14.3987 45.2074V54.8002C14.3987 57.0933 12.5398 58.9522 10.2467 58.9522H8.69042C6.39732 58.9522 4.53839 57.0933 4.53839 54.8002V31.866C4.53839 29.5729 6.39732 27.714 8.69041 27.714H11.1406C12.5688 27.714 13.8968 28.448 14.6565 29.6574L23.8922 44.3595L32.8591 29.6996C33.6136 28.4661 34.9553 27.714 36.4011 27.714H38.831C41.1193 27.714 42.9763 29.5655 42.983 31.8538L43.0503 54.788C43.0571 57.0859 41.1962 58.9522 38.8983 58.9522H37.3276ZM67.3742 47.6172V54.8002C67.3742 57.0933 65.5152 58.9522 63.2221 58.9522H60.7027C58.4096 58.9522 56.5507 57.0933 56.5507 54.8002V47.4833L48.3141 34.0346C46.6197 31.2679 48.6106 27.714 51.8548 27.714H53.5265C54.9771 27.714 56.3225 28.471 57.0754 29.7109L62.4211 38.5135L67.8108 29.6999C68.5652 28.4663 69.907 27.714 71.353 27.714H72.0961C75.3347 27.714 77.3265 31.257 75.6433 34.0239L67.3742 47.6172ZM105.429 35.6574V41.0126H114.849C117.043 41.0126 118.821 42.7908 118.821 44.9843V44.9843C118.821 47.1778 117.043 48.956 114.849 48.956H105.429V54.8002C105.429 57.0933 103.57 58.9522 101.277 58.9522H98.7575C96.4644 58.9522 94.6055 57.0933 94.6055 54.8002V31.866C94.6055 29.5729 96.4644 27.714 98.7575 27.714H116.729C118.923 27.714 120.701 29.4922 120.701 31.6857V31.6857C120.701 33.8793 118.923 35.6574 116.729 35.6574H105.429ZM144.832 53.5079H132.633L131.516 56.3286C130.889 57.9122 129.359 58.9522 127.655 58.9522H125.887C122.876 58.9522 120.866 55.846 122.1 53.0987L132.403 30.1646C133.073 28.6733 134.556 27.714 136.191 27.714H141.458C143.092 27.714 144.575 28.6733 145.245 30.1646L155.548 53.0987C156.782 55.8461 154.773 58.9522 151.761 58.9522H149.809C148.106 58.9522 146.576 57.9122 145.949 56.3286L144.832 53.5079ZM141.851 45.9214L138.732 38.0673L135.614 45.9214H141.851ZM186.042 27.714C189.032 27.714 191.042 30.7788 189.85 33.5209L178.799 58.9522H168.159L157.107 33.5209C155.915 30.7788 157.925 27.714 160.915 27.714H163.472C165.144 27.714 166.654 28.7174 167.301 30.2595L173.891 45.9661L180.654 30.2269C181.309 28.7022 182.809 27.714 184.469 27.714H186.042ZM209.79 59.6663C206.335 59.6663 203.231 58.9671 200.48 57.5688C197.728 56.1705 195.572 54.2368 194.013 51.7674C192.454 49.2684 191.674 46.4569 191.674 43.3331C191.674 40.2093 192.454 37.4127 194.013 34.9434C195.572 32.4444 197.728 30.4957 200.48 29.0974C203.231 27.6991 206.335 27 209.79 27C213.245 27 216.348 27.6991 219.1 29.0974C221.851 30.4957 224.007 32.4444 225.566 34.9434C227.126 37.4127 227.905 40.2093 227.905 43.3331C227.905 46.4569 227.126 49.2684 225.566 51.7674C224.007 54.2368 221.851 56.1705 219.1 57.5688C216.348 58.9671 213.245 59.6663 209.79 59.6663ZM209.79 51.1427C211.135 51.1427 212.343 50.8303 213.413 50.2055C214.513 49.551 215.385 48.6436 216.027 47.4833C216.669 46.2933 216.99 44.9099 216.99 43.3331C216.99 41.7563 216.669 40.3878 216.027 39.2275C215.385 38.0375 214.513 37.1301 213.413 36.5053C212.343 35.8508 211.135 35.5236 209.79 35.5236C208.444 35.5236 207.221 35.8508 206.121 36.5053C205.051 37.1301 204.194 38.0375 203.552 39.2275C202.91 40.3878 202.589 41.7563 202.589 43.3331C202.589 44.9099 202.91 46.2933 203.552 47.4833C204.194 48.6436 205.051 49.551 206.121 50.2055C207.221 50.8303 208.444 51.1427 209.79 51.1427ZM245.592 51.0981H242.657V54.8002C242.657 57.0933 240.798 58.9522 238.505 58.9522H235.986C233.693 58.9522 231.834 57.0933 231.834 54.8002V31.866C231.834 29.5729 233.693 27.714 235.986 27.714H247.289C250.255 27.714 252.838 28.19 255.04 29.142C257.241 30.0941 258.938 31.4626 260.131 33.2476C261.323 35.0327 261.919 37.1152 261.919 39.4953C261.919 41.7266 261.399 43.6753 260.36 45.3413C259.32 47.0073 257.822 48.3312 255.865 49.313L262.607 58.9522H253.221C251.861 58.9522 250.587 58.2863 249.811 57.1695L245.592 51.0981ZM251.004 39.4953C251.004 38.335 250.637 37.4425 249.903 36.8177C249.169 36.1632 248.069 35.836 246.601 35.836H242.657V43.1546H246.601C248.069 43.1546 249.169 42.8422 249.903 42.2175C250.637 41.563 251.004 40.6556 251.004 39.4953ZM266.006 31.866C266.006 29.5729 267.865 27.714 270.158 27.714H272.678C274.971 27.714 276.83 29.5729 276.83 31.866V54.8002C276.83 57.0933 274.971 58.9522 272.678 58.9522H270.158C267.865 58.9522 266.006 57.0933 266.006 54.8002V31.866ZM289.011 35.8806H283.693C281.438 35.8806 279.609 34.0524 279.609 31.7973V31.7973C279.609 29.5422 281.438 27.714 283.693 27.714H305.153C307.408 27.714 309.236 29.5422 309.236 31.7973V31.7973C309.236 34.0524 307.408 35.8806 305.153 35.8806H299.835V54.8002C299.835 57.0933 297.976 58.9522 295.683 58.9522H293.163C290.87 58.9522 289.011 57.0933 289.011 54.8002V35.8806ZM334.768 51.0088C336.961 51.0088 338.739 52.787 338.739 54.9805V54.9805C338.739 57.174 336.961 58.9522 334.768 58.9522H316.2C313.906 58.9522 312.048 57.0933 312.048 54.8002V31.866C312.048 29.5729 313.906 27.714 316.2 27.714H334.171C336.365 27.714 338.143 29.4922 338.143 31.6857V31.6857C338.143 33.8793 336.365 35.6574 334.171 35.6574H322.688V39.3168H332.47C334.564 39.3168 336.263 41.0151 336.263 43.11V43.11C336.263 45.2049 334.564 46.9032 332.47 46.9032H322.688V51.0088H334.768Z" stroke="white" stroke-width="2.07601" mask="url(#path-1-inside-1)"/>
</g>
<g filter="url(#filter1_dddddddd)">
<path d="M403.932 45.0196L403.908 41.2607L402 44.4989L391.332 62.596C390.586 63.8623 389.225 64.6396 387.755 64.6396H385.291C383.849 64.6396 382.511 63.8922 381.755 62.665L371.102 45.3691L369.181 42.2488V45.9134V65.5698C369.181 67.8629 367.322 69.7218 365.029 69.7218H358.19C355.897 69.7218 354.038 67.8629 354.038 65.5698V19.4807C354.038 17.1876 355.897 15.3287 358.19 15.3287H365.615C367.066 15.3287 368.412 16.0862 369.165 17.3267L385.909 44.9192L386.808 46.4011L387.69 44.9087L403.963 17.3686C404.71 16.1044 406.069 15.3287 407.537 15.3287H414.937C417.226 15.3287 419.083 17.1805 419.089 19.469L419.22 65.558C419.226 67.8557 417.366 69.7218 415.068 69.7218H408.212C405.929 69.7218 404.074 67.8786 404.06 65.5956L403.932 45.0196ZM432.139 27.8998L432.142 27.8951C434.764 23.5448 438.385 20.1523 443.028 17.7102C447.668 15.2693 452.919 14.038 458.802 14.038C464.686 14.038 469.936 15.2693 474.577 17.7102C479.219 20.1523 482.841 23.5448 485.463 27.8951L485.466 27.8998C488.082 32.1878 489.399 37.0532 489.399 42.5253C489.399 47.996 488.082 52.8896 485.465 57.2333C482.843 61.5297 479.222 64.8969 474.577 67.3404C469.936 69.7813 464.686 71.0125 458.802 71.0125C452.919 71.0125 447.668 69.7813 443.028 67.3404C438.383 64.8971 434.762 61.5302 432.141 57.2343C429.523 52.8904 428.206 47.9964 428.206 42.5253C428.206 37.0532 429.523 32.1878 432.139 27.8998ZM465.666 55.8369L465.673 55.8324C467.76 54.5477 469.407 52.7674 470.61 50.517L470.615 50.5074C471.825 48.1841 472.414 45.5135 472.414 42.5253C472.414 39.54 471.827 36.8932 470.612 34.6191C469.412 32.3187 467.766 30.532 465.67 29.2965C463.628 28.0077 461.329 27.37 458.802 27.37C456.271 27.37 453.946 28.01 451.855 29.2968C449.809 30.5344 448.191 32.3222 446.993 34.6191C445.778 36.8932 445.191 39.54 445.191 42.5253C445.191 45.5135 445.779 48.1841 446.99 50.5074L446.995 50.5169C448.194 52.7602 449.809 54.5392 451.84 55.8255L451.855 55.8347L451.87 55.8434C453.96 57.0716 456.279 57.6805 458.802 57.6805C461.326 57.6805 463.623 57.0715 465.666 55.8369ZM521.931 47.6748L522.881 50.0199L523.852 47.6827L536.218 17.889C536.861 16.339 538.374 15.3287 540.053 15.3287H547.36C550.328 15.3287 552.337 18.3517 551.188 21.0879L531.84 67.1769C531.193 68.7187 529.684 69.7218 528.012 69.7218H516.332C514.66 69.7218 513.151 68.7187 512.504 67.1769L493.156 21.0879C492.007 18.3517 494.016 15.3287 496.984 15.3287H506.022C507.713 15.3287 509.235 16.354 509.87 17.921L521.931 47.6748ZM603.627 27.612H602.589V28.65V35.265V36.303H603.627H622.143C624.436 36.303 626.295 38.1619 626.295 40.455V43.7888C626.295 46.0819 624.436 47.9409 622.143 47.9409H603.627H602.589V48.9789V56.4005V57.4385H603.627H626.468C628.761 57.4385 630.62 59.2975 630.62 61.5906V65.5698C630.62 67.8629 628.761 69.7218 626.468 69.7218H590.237C587.944 69.7218 586.085 67.8629 586.085 65.5698V19.4807C586.085 17.1876 587.944 15.3287 590.237 15.3287H625.427C627.72 15.3287 629.579 17.1876 629.579 19.4808V23.46C629.579 25.7531 627.72 27.612 625.427 27.612H603.627ZM650.175 57.1548L650.182 57.157L650.19 57.1591C653.579 58.0951 656.849 58.5679 659.996 58.5679C662.629 58.5679 664.683 58.3313 666.014 57.7569L666.033 57.7487L666.051 57.7398C666.724 57.4172 667.299 56.9884 667.707 56.4216C668.122 55.8435 668.322 55.178 668.322 54.4644C668.322 53.6334 668.052 52.8777 667.518 52.2428C667 51.6284 666.276 51.1753 665.43 50.8396C663.893 50.2097 661.412 49.5497 658.047 48.8502C653.754 47.9427 650.201 46.9869 647.378 45.9867C644.661 44.972 642.294 43.351 640.269 41.1084C638.344 38.9246 637.329 35.9396 637.329 32.0381C637.329 28.6945 638.255 25.6716 640.112 22.9415C641.955 20.2333 644.717 18.0618 648.469 16.4564C652.259 14.8574 656.892 14.038 662.399 14.038C666.165 14.038 669.85 14.4594 673.455 15.3015L673.464 15.3035L673.472 15.3054C675.468 15.7361 677.323 16.283 679.041 16.9439C680.842 17.6375 681.654 19.7775 680.841 21.749L679.038 26.1242C678.127 28.3339 675.468 29.3637 673.057 28.4975C669.335 27.1605 665.727 26.4826 662.239 26.4826C659.759 26.4826 657.747 26.7792 656.319 27.4748C655.59 27.8295 654.978 28.3052 654.55 28.9309C654.116 29.5645 653.913 30.2912 653.913 31.0701C653.913 31.8769 654.178 32.6107 654.696 33.229C655.198 33.8286 655.9 34.2756 656.719 34.6118L656.735 34.6182L656.751 34.6241C658.278 35.1939 660.726 35.7986 664.042 36.4451L664.048 36.4463C668.284 37.2462 671.829 38.1743 674.696 39.2244L674.704 39.2273L674.712 39.2301C677.479 40.1931 679.869 41.7873 681.89 44.0275L681.899 44.0368C683.867 46.1639 684.906 49.1137 684.906 53.0124C684.906 56.3545 683.981 59.3763 682.126 62.1053C680.284 64.7602 677.494 66.9351 673.681 68.5966C669.947 70.1931 665.344 71.0125 659.836 71.0125C655.271 71.0125 650.813 70.5107 646.462 69.508C643.97 68.8955 641.749 68.1712 639.792 67.3387C638.048 66.5963 637.316 64.4807 638.16 62.5574L640.107 58.1194C641.091 55.8756 643.897 54.8926 646.362 55.858C647.585 56.337 648.856 56.7692 650.175 57.1548ZM562.238 15.3287H570.759C573.052 15.3287 574.911 17.1877 574.911 19.4808V65.5698C574.911 67.8629 573.052 69.7218 570.759 69.7218H562.238C559.945 69.7218 558.086 67.8629 558.086 65.5698V19.4807C558.086 17.1876 559.945 15.3287 562.238 15.3287Z" stroke="white" stroke-width="2.07601"/>
</g>
<defs>
<filter id="filter0_dddddddd" x="0.386367" y="22.848" width="342.505" height="40.9703" filterUnits="userSpaceOnUse" color-interpolation-filters="sRGB">
<feFlood flood-opacity="0" result="BackgroundImageFix"/>
<feColorMatrix in="SourceAlpha" type="matrix" values="0 0 0 0 0 0 0 0 0 0 0 0 0 0 0 0 0 0 127 0"/>
<feOffset/>
<feGaussianBlur stdDeviation="0.063659"/>
<feColorMatrix type="matrix" values="0 0 0 0 1 0 0 0 0 0.52549 0 0 0 0 0 0 0 0 0.16775 0"/>
<feBlend mode="normal" in2="BackgroundImageFix" result="effect1_dropShadow"/>
<feColorMatrix in="SourceAlpha" type="matrix" values="0 0 0 0 0 0 0 0 0 0 0 0 0 0 0 0 0 0 127 0"/>
<feOffset/>
<feGaussianBlur stdDeviation="0.120019"/>
<feColorMatrix type="matrix" values="0 0 0 0 1 0 0 0 0 0.52549 0 0 0 0 0 0 0 0 0.286 0"/>
<feBlend mode="normal" in2="effect1_dropShadow" result="effect2_dropShadow"/>
<feColorMatrix in="SourceAlpha" type="matrix" values="0 0 0 0 0 0 0 0 0 0 0 0 0 0 0 0 0 0 127 0"/>
<feOffset/>
<feGaussianBlur stdDeviation="0.200708"/>
<feColorMatrix type="matrix" values="0 0 0 0 1 0 0 0 0 0.52549 0 0 0 0 0 0 0 0 0.37125 0"/>
<feBlend mode="normal" in2="effect2_dropShadow" result="effect3_dropShadow"/>
<feColorMatrix in="SourceAlpha" type="matrix" values="0 0 0 0 0 0 0 0 0 0 0 0 0 0 0 0 0 0 127 0"/>
<feOffset/>
<feGaussianBlur stdDeviation="0.337352"/>
<feColorMatrix type="matrix" values="0 0 0 0 1 0 0 0 0 0.52549 0 0 0 0 0 0 0 0 0.44 0"/>
<feBlend mode="normal" in2="effect3_dropShadow" result="effect4_dropShadow"/>
<feColorMatrix in="SourceAlpha" type="matrix" values="0 0 0 0 0 0 0 0 0 0 0 0 0 0 0 0 0 0 127 0"/>
<feOffset/>
<feGaussianBlur stdDeviation="0.561577"/>
<feColorMatrix type="matrix" values="0 0 0 0 1 0 0 0 0 0.52549 0 0 0 0 0 0 0 0 0.50875 0"/>
<feBlend mode="normal" in2="effect4_dropShadow" result="effect5_dropShadow"/>
<feColorMatrix in="SourceAlpha" type="matrix" values="0 0 0 0 0 0 0 0 0 0 0 0 0 0 0 0 0 0 127 0"/>
<feOffset/>
<feGaussianBlur stdDeviation="0.905012"/>
<feColorMatrix type="matrix" values="0 0 0 0 1 0 0 0 0 0.52549 0 0 0 0 0 0 0 0 0.594 0"/>
<feBlend mode="normal" in2="effect5_dropShadow" result="effect6_dropShadow"/>
<feColorMatrix in="SourceAlpha" type="matrix" values="0 0 0 0 0 0 0 0 0 0 0 0 0 0 0 0 0 0 127 0"/>
<feOffset/>
<feGaussianBlur stdDeviation="1.39928"/>
<feColorMatrix type="matrix" values="0 0 0 0 1 0 0 0 0 0.52549 0 0 0 0 0 0 0 0 0.71225 0"/>
<feBlend mode="normal" in2="effect6_dropShadow" result="effect7_dropShadow"/>
<feColorMatrix in="SourceAlpha" type="matrix" values="0 0 0 0 0 0 0 0 0 0 0 0 0 0 0 0 0 0 127 0"/>
<feOffset/>
<feGaussianBlur stdDeviation="2.07601"/>
<feColorMatrix type="matrix" values="0 0 0 0 1 0 0 0 0 0.52549 0 0 0 0 0 0 0 0 0.88 0"/>
<feBlend mode="normal" in2="effect7_dropShadow" result="effect8_dropShadow"/>
<feBlend mode="normal" in="SourceGraphic" in2="effect8_dropShadow" result="shape"/>
</filter>
<filter id="filter1_dddddddd" x="340.544" y="0.543927" width="357.857" height="83.9627" filterUnits="userSpaceOnUse" color-interpolation-filters="sRGB">
<feFlood flood-opacity="0" result="BackgroundImageFix"/>
<feColorMatrix in="SourceAlpha" type="matrix" values="0 0 0 0 0 0 0 0 0 0 0 0 0 0 0 0 0 0 127 0"/>
<feOffset/>
<feGaussianBlur stdDeviation="0.190977"/>
<feColorMatrix type="matrix" values="0 0 0 0 1 0 0 0 0 0.192157 0 0 0 0 0.956863 0 0 0 0.226681 0"/>
<feBlend mode="normal" in2="BackgroundImageFix" result="effect1_dropShadow"/>
<feColorMatrix in="SourceAlpha" type="matrix" values="0 0 0 0 0 0 0 0 0 0 0 0 0 0 0 0 0 0 127 0"/>
<feOffset/>
<feGaussianBlur stdDeviation="0.360058"/>
<feColorMatrix type="matrix" values="0 0 0 0 1 0 0 0 0 0.192157 0 0 0 0 0.956863 0 0 0 0.376633 0"/>
<feBlend mode="normal" in2="effect1_dropShadow" result="effect2_dropShadow"/>
<feColorMatrix in="SourceAlpha" type="matrix" values="0 0 0 0 0 0 0 0 0 0 0 0 0 0 0 0 0 0 127 0"/>
<feOffset/>
<feGaussianBlur stdDeviation="0.602125"/>
<feColorMatrix type="matrix" values="0 0 0 0 1 0 0 0 0 0.192157 0 0 0 0 0.956863 0 0 0 0.473159 0"/>
<feBlend mode="normal" in2="effect2_dropShadow" result="effect3_dropShadow"/>
<feColorMatrix in="SourceAlpha" type="matrix" values="0 0 0 0 0 0 0 0 0 0 0 0 0 0 0 0 0 0 127 0"/>
<feOffset/>
<feGaussianBlur stdDeviation="1.01206"/>
<feColorMatrix type="matrix" values="0 0 0 0 1 0 0 0 0 0.192157 0 0 0 0 0.956863 0 0 0 0.539563 0"/>
<feBlend mode="normal" in2="effect3_dropShadow" result="effect4_dropShadow"/>
<feColorMatrix in="SourceAlpha" type="matrix" values="0 0 0 0 0 0 0 0 0 0 0 0 0 0 0 0 0 0 127 0"/>
<feOffset/>
<feGaussianBlur stdDeviation="1.68473"/>
<feColorMatrix type="matrix" values="0 0 0 0 1 0 0 0 0 0.192157 0 0 0 0 0.956863 0 0 0 0.599146 0"/>
<feBlend mode="normal" in2="effect4_dropShadow" result="effect5_dropShadow"/>
<feColorMatrix in="SourceAlpha" type="matrix" values="0 0 0 0 0 0 0 0 0 0 0 0 0 0 0 0 0 0 127 0"/>
<feOffset/>
<feGaussianBlur stdDeviation="2.71503"/>
<feColorMatrix type="matrix" values="0 0 0 0 1 0 0 0 0 0.192157 0 0 0 0 0.956863 0 0 0 0.675211 0"/>
<feBlend mode="normal" in2="effect5_dropShadow" result="effect6_dropShadow"/>
<feColorMatrix in="SourceAlpha" type="matrix" values="0 0 0 0 0 0 0 0 0 0 0 0 0 0 0 0 0 0 127 0"/>
<feOffset/>
<feGaussianBlur stdDeviation="4.19784"/>
<feColorMatrix type="matrix" values="0 0 0 0 1 0 0 0 0 0.192157 0 0 0 0 0.956863 0 0 0 0.791062 0"/>
<feBlend mode="normal" in2="effect6_dropShadow" result="effect7_dropShadow"/>
<feColorMatrix in="SourceAlpha" type="matrix" values="0 0 0 0 0 0 0 0 0 0 0 0 0 0 0 0 0 0 127 0"/>
<feOffset/>
<feGaussianBlur stdDeviation="6.22804"/>
<feColorMatrix type="matrix" values="0 0 0 0 1 0 0 0 0 0.192157 0 0 0 0 0.956863 0 0 0 0.97 0"/>
<feBlend mode="normal" in2="effect7_dropShadow" result="effect8_dropShadow"/>
<feBlend mode="normal" in="SourceGraphic" in2="effect8_dropShadow" result="shape"/>
</filter>
</defs>
</svg>
