<svg width="370" height="130" viewBox="0 0 370 130" fill="none" xmlns="http://www.w3.org/2000/svg">
<g filter="url(#filter0_dddddddd)">
<mask id="path-1-inside-1" fill="white">
<path d="M54.3276 45.9522C52.0449 45.9522 50.1903 44.1096 50.1756 41.827L50.1105 31.7165L44.3533 41.1515C43.5994 42.387 42.2564 43.1408 40.809 43.1408H40.6467C39.2284 43.1408 37.9082 42.4168 37.1457 41.221L31.3987 32.2074V41.8002C31.3987 44.0933 29.5398 45.9522 27.2467 45.9522H25.6904C23.3973 45.9522 21.5384 44.0933 21.5384 41.8002V18.866C21.5384 16.5729 23.3973 14.714 25.6904 14.714H28.1406C29.5688 14.714 30.8968 15.448 31.6565 16.6574L40.8922 31.3595L49.8591 16.6996C50.6136 15.4661 51.9553 14.714 53.4011 14.714H55.831C58.1193 14.714 59.9763 16.5655 59.983 18.8538L60.0503 41.788C60.0571 44.0859 58.1962 45.9522 55.8983 45.9522H54.3276ZM84.3742 34.6172V41.8002C84.3742 44.0933 82.5152 45.9522 80.2221 45.9522H77.7027C75.4096 45.9522 73.5507 44.0933 73.5507 41.8002V34.4833L65.3141 21.0346C63.6197 18.2679 65.6106 14.714 68.8548 14.714H70.5265C71.9771 14.714 73.3225 15.471 74.0754 16.7109L79.4211 25.5135L84.8108 16.6999C85.5652 15.4663 86.907 14.714 88.353 14.714H89.0961C92.3347 14.714 94.3265 18.257 92.6433 21.0239L84.3742 34.6172ZM122.429 22.6574V28.0126H131.849C134.043 28.0126 135.821 29.7908 135.821 31.9843V31.9843C135.821 34.1778 134.043 35.956 131.849 35.956H122.429V41.8002C122.429 44.0933 120.57 45.9522 118.277 45.9522H115.758C113.464 45.9522 111.606 44.0933 111.606 41.8002V18.866C111.606 16.5729 113.464 14.714 115.758 14.714H133.729C135.923 14.714 137.701 16.4922 137.701 18.6857V18.6857C137.701 20.8793 135.923 22.6574 133.729 22.6574H122.429ZM161.832 40.5079H149.633L148.516 43.3286C147.889 44.9122 146.359 45.9522 144.655 45.9522H142.887C139.876 45.9522 137.866 42.846 139.1 40.0987L149.403 17.1646C150.073 15.6733 151.556 14.714 153.191 14.714H158.458C160.092 14.714 161.575 15.6733 162.245 17.1646L172.548 40.0987C173.782 42.8461 171.773 45.9522 168.761 45.9522H166.809C165.106 45.9522 163.576 44.9122 162.949 43.3286L161.832 40.5079ZM158.851 32.9214L155.732 25.0673L152.614 32.9214H158.851ZM203.042 14.714C206.032 14.714 208.042 17.7788 206.85 20.5209L195.799 45.9522H185.159L174.107 20.5209C172.915 17.7788 174.925 14.714 177.915 14.714H180.472C182.144 14.714 183.654 15.7174 184.301 17.2595L190.891 32.9661L197.654 17.2269C198.309 15.7022 199.809 14.714 201.469 14.714H203.042ZM226.79 46.6663C223.335 46.6663 220.231 45.9671 217.48 44.5688C214.728 43.1705 212.572 41.2368 211.013 38.7674C209.454 36.2684 208.674 33.4569 208.674 30.3331C208.674 27.2093 209.454 24.4127 211.013 21.9434C212.572 19.4444 214.728 17.4957 217.48 16.0974C220.231 14.6991 223.335 14 226.79 14C230.245 14 233.348 14.6991 236.1 16.0974C238.851 17.4957 241.007 19.4444 242.566 21.9434C244.126 24.4127 244.905 27.2093 244.905 30.3331C244.905 33.4569 244.126 36.2684 242.566 38.7674C241.007 41.2368 238.851 43.1705 236.1 44.5688C233.348 45.9671 230.245 46.6663 226.79 46.6663ZM226.79 38.1427C228.135 38.1427 229.343 37.8303 230.413 37.2055C231.513 36.551 232.385 35.6436 233.027 34.4833C233.669 33.2933 233.99 31.9099 233.99 30.3331C233.99 28.7563 233.669 27.3878 233.027 26.2275C232.385 25.0375 231.513 24.1301 230.413 23.5053C229.343 22.8508 228.135 22.5236 226.79 22.5236C225.444 22.5236 224.221 22.8508 223.121 23.5053C222.051 24.1301 221.194 25.0375 220.552 26.2275C219.91 27.3878 219.589 28.7563 219.589 30.3331C219.589 31.9099 219.91 33.2933 220.552 34.4833C221.194 35.6436 222.051 36.551 223.121 37.2055C224.221 37.8303 225.444 38.1427 226.79 38.1427ZM262.592 38.0981H259.657V41.8002C259.657 44.0933 257.798 45.9522 255.505 45.9522H252.986C250.693 45.9522 248.834 44.0933 248.834 41.8002V18.866C248.834 16.5729 250.693 14.714 252.986 14.714H264.289C267.255 14.714 269.838 15.19 272.04 16.142C274.241 17.0941 275.938 18.4626 277.131 20.2476C278.323 22.0327 278.919 24.1152 278.919 26.4953C278.919 28.7266 278.399 30.6753 277.36 32.3413C276.32 34.0073 274.822 35.3312 272.865 36.313L279.607 45.9522H270.221C268.861 45.9522 267.587 45.2863 266.811 44.1695L262.592 38.0981ZM268.004 26.4953C268.004 25.335 267.637 24.4425 266.903 23.8177C266.169 23.1632 265.069 22.836 263.601 22.836H259.657V30.1546H263.601C265.069 30.1546 266.169 29.8422 266.903 29.2175C267.637 28.563 268.004 27.6556 268.004 26.4953ZM283.006 18.866C283.006 16.5729 284.865 14.714 287.158 14.714H289.678C291.971 14.714 293.83 16.5729 293.83 18.866V41.8002C293.83 44.0933 291.971 45.9522 289.678 45.9522H287.158C284.865 45.9522 283.006 44.0933 283.006 41.8002V18.866ZM306.011 22.8806H300.693C298.438 22.8806 296.609 21.0524 296.609 18.7973V18.7973C296.609 16.5422 298.438 14.714 300.693 14.714H322.153C324.408 14.714 326.236 16.5422 326.236 18.7973V18.7973C326.236 21.0524 324.408 22.8806 322.153 22.8806H316.835V41.8002C316.835 44.0933 314.976 45.9522 312.683 45.9522H310.163C307.87 45.9522 306.011 44.0933 306.011 41.8002V22.8806ZM351.768 38.0088C353.961 38.0088 355.739 39.787 355.739 41.9805V41.9805C355.739 44.174 353.961 45.9522 351.768 45.9522H333.2C330.906 45.9522 329.048 44.0933 329.048 41.8002V18.866C329.048 16.5729 330.906 14.714 333.2 14.714H351.171C353.365 14.714 355.143 16.4922 355.143 18.6857V18.6857C355.143 20.8793 353.365 22.6574 351.171 22.6574H339.688V26.3168H349.47C351.564 26.3168 353.263 28.0151 353.263 30.11V30.11C353.263 32.2049 351.564 33.9032 349.47 33.9032H339.688V38.0088H351.768Z"/>
</mask>
<path d="M54.3276 45.9522C52.0449 45.9522 50.1903 44.1096 50.1756 41.827L50.1105 31.7165L44.3533 41.1515C43.5994 42.387 42.2564 43.1408 40.809 43.1408H40.6467C39.2284 43.1408 37.9082 42.4168 37.1457 41.221L31.3987 32.2074V41.8002C31.3987 44.0933 29.5398 45.9522 27.2467 45.9522H25.6904C23.3973 45.9522 21.5384 44.0933 21.5384 41.8002V18.866C21.5384 16.5729 23.3973 14.714 25.6904 14.714H28.1406C29.5688 14.714 30.8968 15.448 31.6565 16.6574L40.8922 31.3595L49.8591 16.6996C50.6136 15.4661 51.9553 14.714 53.4011 14.714H55.831C58.1193 14.714 59.9763 16.5655 59.983 18.8538L60.0503 41.788C60.0571 44.0859 58.1962 45.9522 55.8983 45.9522H54.3276ZM84.3742 34.6172V41.8002C84.3742 44.0933 82.5152 45.9522 80.2221 45.9522H77.7027C75.4096 45.9522 73.5507 44.0933 73.5507 41.8002V34.4833L65.3141 21.0346C63.6197 18.2679 65.6106 14.714 68.8548 14.714H70.5265C71.9771 14.714 73.3225 15.471 74.0754 16.7109L79.4211 25.5135L84.8108 16.6999C85.5652 15.4663 86.907 14.714 88.353 14.714H89.0961C92.3347 14.714 94.3265 18.257 92.6433 21.0239L84.3742 34.6172ZM122.429 22.6574V28.0126H131.849C134.043 28.0126 135.821 29.7908 135.821 31.9843V31.9843C135.821 34.1778 134.043 35.956 131.849 35.956H122.429V41.8002C122.429 44.0933 120.57 45.9522 118.277 45.9522H115.758C113.464 45.9522 111.606 44.0933 111.606 41.8002V18.866C111.606 16.5729 113.464 14.714 115.758 14.714H133.729C135.923 14.714 137.701 16.4922 137.701 18.6857V18.6857C137.701 20.8793 135.923 22.6574 133.729 22.6574H122.429ZM161.832 40.5079H149.633L148.516 43.3286C147.889 44.9122 146.359 45.9522 144.655 45.9522H142.887C139.876 45.9522 137.866 42.846 139.1 40.0987L149.403 17.1646C150.073 15.6733 151.556 14.714 153.191 14.714H158.458C160.092 14.714 161.575 15.6733 162.245 17.1646L172.548 40.0987C173.782 42.8461 171.773 45.9522 168.761 45.9522H166.809C165.106 45.9522 163.576 44.9122 162.949 43.3286L161.832 40.5079ZM158.851 32.9214L155.732 25.0673L152.614 32.9214H158.851ZM203.042 14.714C206.032 14.714 208.042 17.7788 206.85 20.5209L195.799 45.9522H185.159L174.107 20.5209C172.915 17.7788 174.925 14.714 177.915 14.714H180.472C182.144 14.714 183.654 15.7174 184.301 17.2595L190.891 32.9661L197.654 17.2269C198.309 15.7022 199.809 14.714 201.469 14.714H203.042ZM226.79 46.6663C223.335 46.6663 220.231 45.9671 217.48 44.5688C214.728 43.1705 212.572 41.2368 211.013 38.7674C209.454 36.2684 208.674 33.4569 208.674 30.3331C208.674 27.2093 209.454 24.4127 211.013 21.9434C212.572 19.4444 214.728 17.4957 217.48 16.0974C220.231 14.6991 223.335 14 226.79 14C230.245 14 233.348 14.6991 236.1 16.0974C238.851 17.4957 241.007 19.4444 242.566 21.9434C244.126 24.4127 244.905 27.2093 244.905 30.3331C244.905 33.4569 244.126 36.2684 242.566 38.7674C241.007 41.2368 238.851 43.1705 236.1 44.5688C233.348 45.9671 230.245 46.6663 226.79 46.6663ZM226.79 38.1427C228.135 38.1427 229.343 37.8303 230.413 37.2055C231.513 36.551 232.385 35.6436 233.027 34.4833C233.669 33.2933 233.99 31.9099 233.99 30.3331C233.99 28.7563 233.669 27.3878 233.027 26.2275C232.385 25.0375 231.513 24.1301 230.413 23.5053C229.343 22.8508 228.135 22.5236 226.79 22.5236C225.444 22.5236 224.221 22.8508 223.121 23.5053C222.051 24.1301 221.194 25.0375 220.552 26.2275C219.91 27.3878 219.589 28.7563 219.589 30.3331C219.589 31.9099 219.91 33.2933 220.552 34.4833C221.194 35.6436 222.051 36.551 223.121 37.2055C224.221 37.8303 225.444 38.1427 226.79 38.1427ZM262.592 38.0981H259.657V41.8002C259.657 44.0933 257.798 45.9522 255.505 45.9522H252.986C250.693 45.9522 248.834 44.0933 248.834 41.8002V18.866C248.834 16.5729 250.693 14.714 252.986 14.714H264.289C267.255 14.714 269.838 15.19 272.04 16.142C274.241 17.0941 275.938 18.4626 277.131 20.2476C278.323 22.0327 278.919 24.1152 278.919 26.4953C278.919 28.7266 278.399 30.6753 277.36 32.3413C276.32 34.0073 274.822 35.3312 272.865 36.313L279.607 45.9522H270.221C268.861 45.9522 267.587 45.2863 266.811 44.1695L262.592 38.0981ZM268.004 26.4953C268.004 25.335 267.637 24.4425 266.903 23.8177C266.169 23.1632 265.069 22.836 263.601 22.836H259.657V30.1546H263.601C265.069 30.1546 266.169 29.8422 266.903 29.2175C267.637 28.563 268.004 27.6556 268.004 26.4953ZM283.006 18.866C283.006 16.5729 284.865 14.714 287.158 14.714H289.678C291.971 14.714 293.83 16.5729 293.83 18.866V41.8002C293.83 44.0933 291.971 45.9522 289.678 45.9522H287.158C284.865 45.9522 283.006 44.0933 283.006 41.8002V18.866ZM306.011 22.8806H300.693C298.438 22.8806 296.609 21.0524 296.609 18.7973V18.7973C296.609 16.5422 298.438 14.714 300.693 14.714H322.153C324.408 14.714 326.236 16.5422 326.236 18.7973V18.7973C326.236 21.0524 324.408 22.8806 322.153 22.8806H316.835V41.8002C316.835 44.0933 314.976 45.9522 312.683 45.9522H310.163C307.87 45.9522 306.011 44.0933 306.011 41.8002V22.8806ZM351.768 38.0088C353.961 38.0088 355.739 39.787 355.739 41.9805V41.9805C355.739 44.174 353.961 45.9522 351.768 45.9522H333.2C330.906 45.9522 329.048 44.0933 329.048 41.8002V18.866C329.048 16.5729 330.906 14.714 333.2 14.714H351.171C353.365 14.714 355.143 16.4922 355.143 18.6857V18.6857C355.143 20.8793 353.365 22.6574 351.171 22.6574H339.688V26.3168H349.47C351.564 26.3168 353.263 28.0151 353.263 30.11V30.11C353.263 32.2049 351.564 33.9032 349.47 33.9032H339.688V38.0088H351.768Z" stroke="white" stroke-width="2.07601" mask="url(#path-1-inside-1)"/>
</g>
<g filter="url(#filter1_dddddddd)">
<path d="M72.4703 88.7369L72.4469 84.978L70.538 88.2162L59.8707 106.313C59.1242 107.58 57.7638 108.357 56.2938 108.357H53.829C52.3877 108.357 51.0495 107.609 50.2937 106.382L39.6408 89.0863L37.719 85.9661V89.6307V109.287C37.719 111.58 35.8601 113.439 33.567 113.439H26.7284C24.4353 113.439 22.5764 111.58 22.5764 109.287V63.198C22.5764 60.9049 24.4353 59.046 26.7284 59.046H34.1538C35.6048 59.046 36.9506 59.8035 37.7034 61.044L54.4475 88.6365L55.3468 90.1184L56.2285 88.626L72.5011 61.0859C73.2481 59.8216 74.6073 59.046 76.0758 59.046H83.4755C85.764 59.046 87.621 60.8978 87.6275 63.1863L87.7583 109.275C87.7648 111.573 85.904 113.439 83.6063 113.439H76.7503C74.4673 113.439 72.6125 111.596 72.5983 109.313L72.4703 88.7369ZM100.677 71.6171L100.68 71.6124C103.302 67.2621 106.924 63.8696 111.566 61.4274C116.207 58.9866 121.457 57.7553 127.341 57.7553C133.225 57.7553 138.475 58.9866 143.115 61.4274C147.758 63.8696 151.379 67.2621 154.001 71.6124L154.004 71.6171C156.62 75.9051 157.937 80.7705 157.937 86.2426C157.937 91.7133 156.621 96.6069 154.003 100.951C151.382 105.247 147.76 108.614 143.115 111.058C138.475 113.499 133.225 114.73 127.341 114.73C121.457 114.73 116.207 113.499 111.566 111.058C106.922 108.614 103.3 105.247 100.679 100.952C98.0611 96.6077 96.7446 91.7137 96.7446 86.2426C96.7446 80.7705 98.0615 75.9051 100.677 71.6171ZM134.205 99.5541L134.212 99.5497C136.299 98.265 137.945 96.4847 139.148 94.2343L139.153 94.2246C140.364 91.9014 140.952 89.2307 140.952 86.2426C140.952 83.2573 140.365 80.6105 139.151 78.3364C137.951 76.036 136.304 74.2493 134.208 73.0137C132.167 71.725 129.868 71.0873 127.341 71.0873C124.809 71.0873 122.485 71.7273 120.393 73.0141C118.347 74.2516 116.729 76.0395 115.531 78.3364C114.317 80.6105 113.729 83.2573 113.729 86.2426C113.729 89.2307 114.318 91.9014 115.528 94.2247L115.534 94.2342C116.733 96.4775 118.347 98.2565 120.379 99.5428L120.393 99.552L120.408 99.5607C122.498 100.789 124.817 101.398 127.341 101.398C129.864 101.398 132.162 100.789 134.205 99.5541ZM190.469 91.392L191.42 93.7371L192.39 91.4L204.756 61.6063C205.4 60.0563 206.913 59.046 208.591 59.046H215.898C218.866 59.046 220.876 62.069 219.727 64.8052L200.379 110.894C199.732 112.436 198.223 113.439 196.55 113.439H184.87C183.198 113.439 181.689 112.436 181.042 110.894L161.694 64.8052C160.545 62.069 162.555 59.046 165.522 59.046H174.56C176.251 59.046 177.773 60.0713 178.408 61.6383L190.469 91.392ZM272.166 71.3293H271.128V72.3673V78.9822V80.0202H272.166H290.681C292.975 80.0202 294.833 81.8792 294.833 84.1723V87.5061C294.833 89.7992 292.975 91.6582 290.681 91.6582H272.166H271.128V92.6962V100.118V101.156H272.166H295.006C297.299 101.156 299.158 103.015 299.158 105.308V109.287C299.158 111.58 297.299 113.439 295.006 113.439H258.776C256.483 113.439 254.624 111.58 254.624 109.287V63.198C254.624 60.9049 256.483 59.046 258.776 59.046H293.965C296.258 59.046 298.117 60.9049 298.117 63.198V67.1773C298.117 69.4704 296.258 71.3293 293.965 71.3293H272.166ZM318.713 100.872L318.721 100.874L318.728 100.876C322.117 101.812 325.387 102.285 328.535 102.285C331.167 102.285 333.222 102.049 334.552 101.474L334.571 101.466L334.59 101.457C335.262 101.134 335.838 100.706 336.245 100.139C336.661 99.5608 336.861 98.8953 336.861 98.1817C336.861 97.3507 336.591 96.595 336.056 95.9601C335.538 95.3457 334.815 94.8925 333.968 94.5569C332.431 93.927 329.95 93.267 326.585 92.5675C322.292 91.66 318.74 90.7042 315.916 89.704C313.2 88.6893 310.833 87.0682 308.807 84.8256C306.882 82.6419 305.867 79.6569 305.867 75.7554C305.867 72.4118 306.794 69.3889 308.651 66.6588C310.493 63.9506 313.255 61.7791 317.007 60.1737C320.797 58.5747 325.43 57.7553 330.937 57.7553C334.703 57.7553 338.388 58.1767 341.994 59.0188L342.002 59.0208L342.011 59.0226C344.006 59.4534 345.862 60.0003 347.579 60.6612C349.381 61.3547 350.192 63.4948 349.38 65.4663L347.576 69.8415C346.665 72.0512 344.007 73.081 341.595 72.2148C337.873 70.8778 334.266 70.1999 330.777 70.1999C328.297 70.1999 326.285 70.4965 324.857 71.1921C324.129 71.5468 323.517 72.0225 323.088 72.6482C322.655 73.2818 322.451 74.0085 322.451 74.7874C322.451 75.5942 322.716 76.328 323.234 76.9463C323.736 77.5459 324.438 77.9929 325.258 78.3291L325.273 78.3355L325.289 78.3414C326.816 78.9112 329.264 79.5158 332.581 80.1624L332.587 80.1636C336.822 80.9634 340.367 81.8916 343.234 82.9417L343.242 82.9446L343.25 82.9474C346.017 83.9104 348.407 85.5045 350.429 87.7448L350.437 87.7541C352.405 89.8812 353.445 92.831 353.445 96.7297C353.445 100.072 352.519 103.094 350.664 105.823C348.823 108.477 346.032 110.652 342.219 112.314C338.485 113.91 333.882 114.73 328.375 114.73C323.809 114.73 319.351 114.228 315 113.225C312.509 112.613 310.287 111.889 308.331 111.056C306.586 110.314 305.855 108.198 306.698 106.275L308.645 101.837C309.629 99.5929 312.436 98.6099 314.9 99.5752C316.124 100.054 317.395 100.486 318.713 100.872ZM230.777 59.046H239.297C241.59 59.046 243.449 60.9049 243.449 63.198V109.287C243.449 111.58 241.59 113.439 239.297 113.439H230.777C228.484 113.439 226.625 111.58 226.625 109.287V63.198C226.625 60.9049 228.484 59.046 230.777 59.046Z" stroke="white" stroke-width="2.07601"/>
</g>
<defs>
<filter id="filter0_dddddddd" x="17.3864" y="9.84798" width="342.505" height="40.9703" filterUnits="userSpaceOnUse" color-interpolation-filters="sRGB">
<feFlood flood-opacity="0" result="BackgroundImageFix"/>
<feColorMatrix in="SourceAlpha" type="matrix" values="0 0 0 0 0 0 0 0 0 0 0 0 0 0 0 0 0 0 127 0"/>
<feOffset/>
<feGaussianBlur stdDeviation="0.063659"/>
<feColorMatrix type="matrix" values="0 0 0 0 1 0 0 0 0 0.52549 0 0 0 0 0 0 0 0 0.16775 0"/>
<feBlend mode="normal" in2="BackgroundImageFix" result="effect1_dropShadow"/>
<feColorMatrix in="SourceAlpha" type="matrix" values="0 0 0 0 0 0 0 0 0 0 0 0 0 0 0 0 0 0 127 0"/>
<feOffset/>
<feGaussianBlur stdDeviation="0.120019"/>
<feColorMatrix type="matrix" values="0 0 0 0 1 0 0 0 0 0.52549 0 0 0 0 0 0 0 0 0.286 0"/>
<feBlend mode="normal" in2="effect1_dropShadow" result="effect2_dropShadow"/>
<feColorMatrix in="SourceAlpha" type="matrix" values="0 0 0 0 0 0 0 0 0 0 0 0 0 0 0 0 0 0 127 0"/>
<feOffset/>
<feGaussianBlur stdDeviation="0.200708"/>
<feColorMatrix type="matrix" values="0 0 0 0 1 0 0 0 0 0.52549 0 0 0 0 0 0 0 0 0.37125 0"/>
<feBlend mode="normal" in2="effect2_dropShadow" result="effect3_dropShadow"/>
<feColorMatrix in="SourceAlpha" type="matrix" values="0 0 0 0 0 0 0 0 0 0 0 0 0 0 0 0 0 0 127 0"/>
<feOffset/>
<feGaussianBlur stdDeviation="0.337352"/>
<feColorMatrix type="matrix" values="0 0 0 0 1 0 0 0 0 0.52549 0 0 0 0 0 0 0 0 0.44 0"/>
<feBlend mode="normal" in2="effect3_dropShadow" result="effect4_dropShadow"/>
<feColorMatrix in="SourceAlpha" type="matrix" values="0 0 0 0 0 0 0 0 0 0 0 0 0 0 0 0 0 0 127 0"/>
<feOffset/>
<feGaussianBlur stdDeviation="0.561577"/>
<feColorMatrix type="matrix" values="0 0 0 0 1 0 0 0 0 0.52549 0 0 0 0 0 0 0 0 0.50875 0"/>
<feBlend mode="normal" in2="effect4_dropShadow" result="effect5_dropShadow"/>
<feColorMatrix in="SourceAlpha" type="matrix" values="0 0 0 0 0 0 0 0 0 0 0 0 0 0 0 0 0 0 127 0"/>
<feOffset/>
<feGaussianBlur stdDeviation="0.905012"/>
<feColorMatrix type="matrix" values="0 0 0 0 1 0 0 0 0 0.52549 0 0 0 0 0 0 0 0 0.594 0"/>
<feBlend mode="normal" in2="effect5_dropShadow" result="effect6_dropShadow"/>
<feColorMatrix in="SourceAlpha" type="matrix" values="0 0 0 0 0 0 0 0 0 0 0 0 0 0 0 0 0 0 127 0"/>
<feOffset/>
<feGaussianBlur stdDeviation="1.39928"/>
<feColorMatrix type="matrix" values="0 0 0 0 1 0 0 0 0 0.52549 0 0 0 0 0 0 0 0 0.71225 0"/>
<feBlend mode="normal" in2="effect6_dropShadow" result="effect7_dropShadow"/>
<feColorMatrix in="SourceAlpha" type="matrix" values="0 0 0 0 0 0 0 0 0 0 0 0 0 0 0 0 0 0 127 0"/>
<feOffset/>
<feGaussianBlur stdDeviation="2.07601"/>
<feColorMatrix type="matrix" values="0 0 0 0 1 0 0 0 0 0.52549 0 0 0 0 0 0 0 0 0.88 0"/>
<feBlend mode="normal" in2="effect7_dropShadow" result="effect8_dropShadow"/>
<feBlend mode="normal" in="SourceGraphic" in2="effect8_dropShadow" result="shape"/>
</filter>
<filter id="filter1_dddddddd" x="9.08232" y="44.2612" width="357.857" height="83.9627" filterUnits="userSpaceOnUse" color-interpolation-filters="sRGB">
<feFlood flood-opacity="0" result="BackgroundImageFix"/>
<feColorMatrix in="SourceAlpha" type="matrix" values="0 0 0 0 0 0 0 0 0 0 0 0 0 0 0 0 0 0 127 0"/>
<feOffset/>
<feGaussianBlur stdDeviation="0.190977"/>
<feColorMatrix type="matrix" values="0 0 0 0 1 0 0 0 0 0.192157 0 0 0 0 0.956863 0 0 0 0.226681 0"/>
<feBlend mode="normal" in2="BackgroundImageFix" result="effect1_dropShadow"/>
<feColorMatrix in="SourceAlpha" type="matrix" values="0 0 0 0 0 0 0 0 0 0 0 0 0 0 0 0 0 0 127 0"/>
<feOffset/>
<feGaussianBlur stdDeviation="0.360058"/>
<feColorMatrix type="matrix" values="0 0 0 0 1 0 0 0 0 0.192157 0 0 0 0 0.956863 0 0 0 0.376633 0"/>
<feBlend mode="normal" in2="effect1_dropShadow" result="effect2_dropShadow"/>
<feColorMatrix in="SourceAlpha" type="matrix" values="0 0 0 0 0 0 0 0 0 0 0 0 0 0 0 0 0 0 127 0"/>
<feOffset/>
<feGaussianBlur stdDeviation="0.602125"/>
<feColorMatrix type="matrix" values="0 0 0 0 1 0 0 0 0 0.192157 0 0 0 0 0.956863 0 0 0 0.473159 0"/>
<feBlend mode="normal" in2="effect2_dropShadow" result="effect3_dropShadow"/>
<feColorMatrix in="SourceAlpha" type="matrix" values="0 0 0 0 0 0 0 0 0 0 0 0 0 0 0 0 0 0 127 0"/>
<feOffset/>
<feGaussianBlur stdDeviation="1.01206"/>
<feColorMatrix type="matrix" values="0 0 0 0 1 0 0 0 0 0.192157 0 0 0 0 0.956863 0 0 0 0.539563 0"/>
<feBlend mode="normal" in2="effect3_dropShadow" result="effect4_dropShadow"/>
<feColorMatrix in="SourceAlpha" type="matrix" values="0 0 0 0 0 0 0 0 0 0 0 0 0 0 0 0 0 0 127 0"/>
<feOffset/>
<feGaussianBlur stdDeviation="1.68473"/>
<feColorMatrix type="matrix" values="0 0 0 0 1 0 0 0 0 0.192157 0 0 0 0 0.956863 0 0 0 0.599146 0"/>
<feBlend mode="normal" in2="effect4_dropShadow" result="effect5_dropShadow"/>
<feColorMatrix in="SourceAlpha" type="matrix" values="0 0 0 0 0 0 0 0 0 0 0 0 0 0 0 0 0 0 127 0"/>
<feOffset/>
<feGaussianBlur stdDeviation="2.71503"/>
<feColorMatrix type="matrix" values="0 0 0 0 1 0 0 0 0 0.192157 0 0 0 0 0.956863 0 0 0 0.675211 0"/>
<feBlend mode="normal" in2="effect5_dropShadow" result="effect6_dropShadow"/>
<feColorMatrix in="SourceAlpha" type="matrix" values="0 0 0 0 0 0 0 0 0 0 0 0 0 0 0 0 0 0 127 0"/>
<feOffset/>
<feGaussianBlur stdDeviation="4.19784"/>
<feColorMatrix type="matrix" values="0 0 0 0 1 0 0 0 0 0.192157 0 0 0 0 0.956863 0 0 0 0.791062 0"/>
<feBlend mode="normal" in2="effect6_dropShadow" result="effect7_dropShadow"/>
<feColorMatrix in="SourceAlpha" type="matrix" values="0 0 0 0 0 0 0 0 0 0 0 0 0 0 0 0 0 0 127 0"/>
<feOffset/>
<feGaussianBlur stdDeviation="6.22804"/>
<feColorMatrix type="matrix" values="0 0 0 0 1 0 0 0 0 0.192157 0 0 0 0 0.956863 0 0 0 0.97 0"/>
<feBlend mode="normal" in2="effect7_dropShadow" result="effect8_dropShadow"/>
<feBlend mode="normal" in="SourceGraphic" in2="effect8_dropShadow" result="shape"/>
</filter>
</defs>
</svg>
