<svg width="30" height="47" viewBox="0 0 30 47" fill="none" xmlns="http://www.w3.org/2000/svg">
<path d="M15.9775 23.4848L1.13071 38.1554C0.376331 38.9001 4.91788e-07 39.8108 4.91788e-07 40.8876C4.91788e-07 41.9642 0.376438 42.8745 1.13071 43.6191L3.42155 45.8834C4.17475 46.6277 5.09659 47 6.18589 47C7.27519 47 8.1966 46.6277 8.95097 45.8834L28.8694 26.2321C29.6231 25.4874 30 24.5768 30 23.4999C30 22.4231 29.6232 21.5132 28.8694 20.7682L8.95108 1.11692C8.1967 0.372272 7.2754 -8.4766e-07 6.186 -8.4766e-07C5.09659 -8.4766e-07 4.17486 0.372272 3.42166 1.11692L1.13082 3.3808C0.376439 4.12503 0.000104988 5.0306 0.000104988 6.09773C0.000104988 7.16401 0.376546 8.07974 1.13082 8.84437L15.9775 23.4848Z" fill="#FECB8D"/>
</svg>
