<svg width="30" height="47" viewBox="0 0 30 47" fill="none" xmlns="http://www.w3.org/2000/svg">
<path d="M14.0225 23.5152L28.8693 8.84458C29.6237 8.09993 30 7.18918 30 6.11243C30 5.03579 29.6236 4.12546 28.8693 3.38091L26.5784 1.11661C25.8252 0.372273 24.9034 0 23.8141 0C22.7248 0 21.8034 0.372273 21.049 1.11661L1.1306 20.7679C0.376867 21.5126 0 22.4232 0 23.5001C0 24.5769 0.37676 25.4868 1.1306 26.2318L21.0489 45.8831C21.8033 46.6277 22.7246 47 23.814 47C24.9034 47 25.8251 46.6277 26.5783 45.8831L28.8692 43.6192C29.6236 42.875 29.9999 41.9694 29.9999 40.9023C29.9999 39.836 29.6235 38.9203 28.8692 38.1556L14.0225 23.5152Z" fill="#FECB8D"/>
</svg>
