<svg width="36" height="36" viewBox="0 0 36 36" fill="none" xmlns="http://www.w3.org/2000/svg">
<path d="M1.24173 22.2532H8.1045C8.67297 22.2532 9.13383 21.843 9.13383 21.337V13.946C9.13383 13.44 8.67297 13.0298 8.1045 13.0298H1.24173C0.673269 13.0298 0.212402 13.44 0.212402 13.946V21.337C0.212402 21.843 0.673269 22.2532 1.24173 22.2532Z" fill="#FFDA92"/>
<path d="M14.2813 9.36457H21.1441C21.7125 9.36457 22.1734 8.95433 22.1734 8.44832V1.05736C22.1734 0.551349 21.7125 0.141113 21.1441 0.141113H14.2813C13.7128 0.141113 13.252 0.551349 13.252 1.05736V8.44832C13.252 8.95433 13.7128 9.36457 14.2813 9.36457V9.36457Z" fill="#FFDA92"/>
<path d="M1.24173 9.36457H8.1045C8.67297 9.36457 9.13383 8.95433 9.13383 8.44832V1.05736C9.13383 0.551349 8.67297 0.141113 8.1045 0.141113H1.24173C0.673269 0.141113 0.212402 0.551349 0.212402 1.05736V8.44832C0.212402 8.95433 0.673269 9.36457 1.24173 9.36457Z" fill="#FFDA92"/>
<path d="M0.212402 33.3084V34.2247C0.212402 34.7307 0.673269 35.1409 1.24173 35.1409H8.1045C8.67297 35.1409 9.13383 34.7307 9.13383 34.2247V26.8337C9.13383 26.3277 8.67297 25.9175 8.1045 25.9175H1.24173C0.673269 25.9175 0.212402 26.3277 0.212402 26.8337V33.3084Z" fill="#FFDA92"/>
<path d="M14.2813 22.2532H21.1441C21.7125 22.2532 22.1734 21.843 22.1734 21.337V13.946C22.1734 13.44 21.7125 13.0298 21.1441 13.0298H14.2813C13.7128 13.0298 13.252 13.44 13.252 13.946V21.337C13.252 21.843 13.7128 22.2532 14.2813 22.2532V22.2532Z" fill="#FFDA92"/>
<path d="M14.2813 35.1409H21.1441C21.7125 35.1409 22.1734 34.7307 22.1734 34.2247V26.8337C22.1734 26.3277 21.7125 25.9175 21.1441 25.9175H14.2813C13.7128 25.9175 13.252 26.3277 13.252 26.8337V34.2247C13.252 34.7307 13.7128 35.1409 14.2813 35.1409V35.1409Z" fill="#FFDA92"/>
<path d="M27.3203 35.1409H34.1831C34.7516 35.1409 35.2124 34.7307 35.2124 34.2247V26.8337C35.2124 26.3277 34.7516 25.9175 34.1831 25.9175H27.3203C26.7519 25.9175 26.291 26.3277 26.291 26.8337V34.2247C26.291 34.7307 26.7519 35.1409 27.3203 35.1409Z" fill="#FFDA92"/>
<path d="M27.3203 22.2532H34.1831C34.7516 22.2532 35.2124 21.843 35.2124 21.337V13.946C35.2124 13.44 34.7516 13.0298 34.1831 13.0298H27.3203C26.7519 13.0298 26.291 13.44 26.291 13.946V21.337C26.291 21.843 26.7519 22.2532 27.3203 22.2532Z" fill="#FFDA92"/>
<path d="M27.3203 9.36457H34.1831C34.7516 9.36457 35.2124 8.95433 35.2124 8.44832V1.05736C35.2124 0.551349 34.7516 0.141113 34.1831 0.141113H27.3203C26.7519 0.141113 26.291 0.551349 26.291 1.05736V8.44832C26.291 8.95433 26.7519 9.36457 27.3203 9.36457Z" fill="#FFDA92"/>
</svg>
